<svg xmlns="http://www.w3.org/2000/svg" width="141.306" height="188.732" viewBox="0 0 141.306 188.732">
  <g id="halfMoon" transform="translate(161.492 -19.067) rotate(74)" fill="none">
    <path d="M84,114.9c46.392,0,84-77.292,84-30.9A84,84,0,0,1,0,84C0,37.608,37.608,114.9,84,114.9Z" stroke="#000" stroke-width="2"/>
    <path d="M 84 166 C 89.56491088867188 166 95.12572479248047 165.4394683837891 100.5279769897461 164.3340148925781 C 105.7919311523438 163.2568511962891 110.9697036743164 161.6495819091797 115.9175033569336 159.5568542480469 C 120.7759094238281 157.5019226074219 125.4619750976563 154.9583740234375 129.8455963134766 151.9968872070313 C 134.1880645751953 149.0631561279297 138.2715911865234 145.6939239501953 141.9827575683594 141.9827423095703 C 145.6939392089844 138.2715911865234 149.0631561279297 134.1880645751953 151.9968872070313 129.8455810546875 C 154.9583892822266 125.4619674682617 157.5019378662109 120.7759017944336 159.5568695068359 115.9174957275391 C 161.6495971679688 110.9696960449219 163.2568664550781 105.7919235229492 164.3340301513672 100.5279693603516 C 165.4394836425781 95.12571716308594 166 89.56490325927734 166 83.99999237060547 C 166 79.06760406494141 165.5583343505859 75.47444915771484 164.6872711181641 73.32033538818359 C 164.3511657714844 72.48912811279297 163.9615936279297 71.89483642578125 163.5294036865234 71.55392456054688 C 163.1952514648438 71.29035949707031 162.8293151855469 71.17281341552734 162.3428344726563 71.17281341552734 C 160.7769165039063 71.17281341552734 158.3127899169922 72.41567230224609 155.0189514160156 74.86685943603516 C 151.6826324462891 77.34963226318359 147.8424835205078 80.77076721191406 143.3959503173828 84.73213195800781 C 128.157470703125 98.30783081054688 107.2877044677734 116.9004058837891 84 116.9004058837891 C 60.70949935913086 116.9004058837891 39.83927154541016 98.30678558349609 24.60047721862793 84.73033142089844 C 20.15459060668945 80.76944732666016 16.31500053405762 77.34870147705078 12.97929573059082 74.86624145507813 C 9.686136245727539 72.41547393798828 7.22261381149292 71.17281341552734 5.657159328460693 71.17281341552734 C 5.171409130096436 71.17281341552734 4.8058180809021 71.29038238525391 4.47177267074585 71.55399322509766 C 4.039432048797607 71.89519500732422 3.649681806564331 72.48986053466797 3.3133864402771 73.32144927978516 C 2.441886425018311 75.47647094726563 2 79.06924438476563 2 83.99999237060547 C 2 89.56490325927734 2.560522794723511 95.12571716308594 3.665977239608765 100.5279693603516 C 4.743136405944824 105.7919235229492 6.350409030914307 110.9696960449219 8.443136215209961 115.9174957275391 C 10.49809074401855 120.7759017944336 13.04163646697998 125.4619674682617 16.00313568115234 129.8455810546875 C 18.93684005737305 134.1880645751953 22.30609130859375 138.2715911865234 26.01725006103516 141.9827423095703 C 29.72840881347656 145.6939239501953 33.81195449829102 149.0631561279297 38.1544075012207 151.9968872070313 C 42.53802108764648 154.9583740234375 47.22411346435547 157.5019226074219 52.08252334594727 159.5568542480469 C 57.03029632568359 161.6495819091797 62.20806884765625 163.2568511962891 67.47202301025391 164.3340148925781 C 72.87429809570313 165.4394683837891 78.43508911132813 166 84 166 M 84 168 C 37.60808944702148 168 0 130.3919219970703 0 83.99999237060547 C 0 73.29395294189453 2.00565767288208 69.17282104492188 5.657159328460693 69.17282104492188 C 17.8285083770752 69.17282104492188 48.31413269042969 114.9004058837891 84 114.9004058837891 C 119.6830520629883 114.9004058837891 150.1695556640625 69.17282104492188 162.3428497314453 69.17282104492188 C 165.9961853027344 69.17282104492188 168 73.29112243652344 168 83.99999237060547 C 168 130.3919219970703 130.3919372558594 168 84 168 Z" />
  </g>
</svg>
